<svg fill="none" height="24" viewBox="0 0 24 24" width="24" xmlns="http://www.w3.org/2000/svg">
    <linearGradient id="a" gradientUnits="userSpaceOnUse" x1="22.0001" x2="1.67423" y1="21.9997"
        y2="21.6629">
        <stop offset="0" stop-color="#888bf4" />
        <stop offset="1" stop-color="#5151c6" />
    </linearGradient>
    <path clip-rule="evenodd"
        d="m4.54 2h3.38c1.41 0 2.54 1.15 2.54 2.561v3.409c0 1.42-1.13 2.56-2.54 2.56h-3.38c-1.4 0-2.54-1.14-2.54-2.56v-3.409c0-1.411 1.14-2.561 2.54-2.561zm0 11.4697h3.38c1.41 0 2.54 1.141 2.54 2.561v3.409c0 1.41-1.13 2.56-2.54 2.56h-3.38c-1.4 0-2.54-1.15-2.54-2.56v-3.409c0-1.42 1.14-2.561 2.54-2.561zm14.9201-11.4697h-3.38c-1.41 0-2.54 1.15-2.54 2.561v3.409c0 1.42 1.13 2.56 2.54 2.56h3.38c1.4 0 2.54-1.14 2.54-2.56v-3.409c0-1.411-1.14-2.561-2.54-2.561zm-3.38 11.4697h3.38c1.4 0 2.54 1.141 2.54 2.561v3.409c0 1.41-1.14 2.56-2.54 2.56h-3.38c-1.41 0-2.54-1.15-2.54-2.56v-3.409c0-1.42 1.13-2.561 2.54-2.561z"
        fill="url(#a)" fill-rule="evenodd" />
</svg>