<svg fill="none" height="20" viewBox="0 0 20 20" width="20" xmlns="http://www.w3.org/2000/svg">
    <path
        d="m14.6982 5.92504c-.3109 0-.5925-.17917-.725-.45917-.2392-.50667-.5434-1.15417-.7234-1.50667-.2658-.52416-.6966-.82916-1.2933-.83333-.01-.00083-3.90333-.00083-3.91333 0-.59667.00417-1.02667.30917-1.29333.83333-.17917.3525-.48334 1-.7225 1.50667-.1325.28-.415.45917-.725.45917-1.66334 0-3.01084 1.3475-3.01084 3.01v4.94666c0 1.6617 1.3475 3.01 3.01084 3.01h9.39586c1.6625 0 3.01-1.3483 3.01-3.01v-4.94666c0-1.6625-1.3475-3.01-3.01-3.01z"
        style="fill-rule:evenodd;clip-rule:evenodd;stroke:#333;stroke-width:1.5;stroke-linecap:round;stroke-linejoin:round" />
    <path
        d="m7.35116 11.1121c-.00083 1.4608 1.19167 2.6558 2.65004 2.655 1.4558-.0017 2.645-1.1917 2.6475-2.6491.0025-1.46338-1.1859-2.65588-2.6459-2.65755-1.46831-.00167-2.66331 1.21083-2.65164 2.65165z"
        style="fill-rule:evenodd;clip-rule:evenodd;stroke:#333;stroke-width:1.5;stroke-linecap:round;stroke-linejoin:round" />
    <path
        d="m14.0856 9.16257c-.0805-.00826-.16-.02927-.2491-.06512-.0991-.04401-.1848-.09999-.2678-.18424-.1489-.15846-.2352-.36569-.2352-.57947 0-.11356.0232-.22611.0686-.32807.0454-.10329.0992-.19043.1965-.28521.0741-.06447.1499-.11635.2536-.16202.3074-.12181.673-.04903.9016.1794.0685.06748.1261.14891.1582.21759l.0189.04869c.046.10351.0693.21606.0693.32962 0 .21811-.0852.41983-.2433.58773-.1366.13753-.316.22211-.5074.24111l-.0827.00409z"
        fill="#333" />
</svg>