<svg fill="none" height="24" viewBox="0 0 24 24" width="24" xmlns="http://www.w3.org/2000/svg">
    <path
        d="m7.92 1.25h-3.38v1.5h3.38zm3.29 3.311c0-1.81734-1.45795-3.311-3.29-3.311v1.5c.98795 0 1.79.80634 1.79 1.811zm0 3.409v-3.409h-1.5v3.409zm-3.29 3.31c1.82996 0 3.29-1.48155 3.29-3.31h-1.5c0 1.01155-.79996 1.81-1.79 1.81zm-3.38 0h3.38v-1.5h-3.38zm-3.29-3.31c0 1.83038 1.47196 3.31 3.29 3.31v-1.5c-.98196 0-1.79-.80038-1.79-1.81zm0-3.409v3.409h1.5v-3.409zm3.29-3.311c-1.82013 0-3.29 1.49173-3.29 3.311h1.5c0-1.00273.81013-1.811 1.79-1.811zm3.38 11.4697h-3.38v1.5h3.38zm3.29 3.311c0-1.8281-1.45966-3.311-3.29-3.311v1.5c.98966 0 1.79.7991 1.79 1.811zm0 3.409v-3.409h-1.5v3.409zm-3.29 3.31c1.83186 0 3.29-1.4935 3.29-3.31h-1.5c0 1.0035-.80186 1.81-1.79 1.81zm-3.38 0h3.38v-1.5h-3.38zm-3.29-3.31c0 1.8185 1.47006 3.31 3.29 3.31v-1.5c-.98006 0-1.79-.8085-1.79-1.81zm0-3.409v3.409h1.5v-3.409zm3.29-3.311c-1.81842 0-3.29 1.481-3.29 3.311h1.5c0-1.01.80842-1.811 1.79-1.811zm11.5401-9.9697h3.38v-1.5h-3.38zm-1.79 1.811c0-1.00466.802-1.811 1.79-1.811v-1.5c-1.832 0-3.29 1.49366-3.29 3.311zm0 3.409v-3.409h-1.5v3.409zm1.79 1.81c-.99 0-1.79-.79845-1.79-1.81h-1.5c0 1.82845 1.46 3.31 3.29 3.31zm3.38 0h-3.38v1.5h3.38zm1.79-1.81c0 1.00962-.808 1.81-1.79 1.81v1.5c1.818 0 3.29-1.47962 3.29-3.31zm0-3.409v3.409h1.5v-3.409zm-1.79-1.811c.9799 0 1.79.80827 1.79 1.811h1.5c0-1.81927-1.4699-3.311-3.29-3.311zm0 9.9697h-3.38v1.5h3.38zm3.29 3.311c0-1.83-1.4716-3.311-3.29-3.311v1.5c.9816 0 1.79.801 1.79 1.811zm0 3.409v-3.409h-1.5v3.409zm-3.29 3.31c1.8199 0 3.29-1.4915 3.29-3.31h-1.5c0 1.0015-.8099 1.81-1.79 1.81zm-3.38 0h3.38v-1.5h-3.38zm-3.29-3.31c0 1.8165 1.4581 3.31 3.29 3.31v-1.5c-.9881 0-1.79-.8065-1.79-1.81zm0-3.409v3.409h1.5v-3.409zm3.29-3.311c-1.8303 0-3.29 1.4829-3.29 3.311h1.5c0-1.0119.8003-1.811 1.79-1.811z"
        fill="#242424" />
</svg>