<svg fill="none" height="20" viewBox="0 0 20 20" width="20" xmlns="http://www.w3.org/2000/svg"
    xmlns:xlink="http://www.w3.org/1999/xlink">
    <linearGradient id="a">
        <stop offset="0" stop-color="#888bf4" />
        <stop offset="1" stop-color="#5151c6" />
    </linearGradient>
    <linearGradient id="b" gradientUnits="userSpaceOnUse" x1="14.9581" x2="5.3444" xlink:href="#a"
        y1="11.1592" y2="10.3801" />
    <linearGradient id="c" gradientUnits="userSpaceOnUse" x1="18.3332" x2="1.39503" xlink:href="#a"
        y1="18.3334" y2="18.0528" />
    <g clip-rule="evenodd" fill-rule="evenodd">
        <path
            d="m6.41277 11.1592c-.5373 0-.97381-.4365-.97381-.9738 0-.53576.43651-.97227.97381-.97227.53731 0 .97381.43651.97381.97227 0 .5373-.4365.9738-.97381.9738zm3.78573 0c-.53733 0-.97384-.4365-.97384-.9738 0-.53576.43651-.97227.97384-.97227.5373 0 .9738.43651.9738.97227 0 .5373-.4365.9738-.9738.9738zm2.812-.9738c0 .5373.4365.9738.9738.9738s.9738-.4365.9738-.9738c0-.53576-.4365-.97227-.9738-.97227s-.9738.43651-.9738.97227z"
            fill="url(#b)" />
        <path
            d="m10.0165 1.66675c-4.84166 0-8.35 3.9551-8.35 8.34585 0 1.4021.40834 2.8451 1.125 4.1637.13334.2179.15.4925.05834.752l-.55834 1.8695c-.125.4507.25834.7837.68334.6501l1.68333-.4999c.45833-.1502.81667.0409 1.24167.3005 1.21666.7169 2.73333 1.0849 4.1 1.0849 4.13336 0 8.33336-3.1964 8.33336-8.34584 0-4.44082-3.5834-8.32081-8.3167-8.32081z"
            stroke="url(#c)" stroke-linecap="round" stroke-linejoin="round" stroke-width="1.5" />
    </g>
</svg>