<svg fill="none" height="24" viewBox="0 0 24 24" width="24" xmlns="http://www.w3.org/2000/svg">
    <g stroke="#130f26" stroke-linecap="round" stroke-linejoin="round" stroke-width="1.5">
        <path
            d="m19.3248 9.46826s-.543 6.73504-.858 9.57204c-.15 1.355-.987 2.149-2.358 2.174-2.609.047-5.221.05-7.82901-.005-1.319-.027-2.142-.831-2.289-2.162-.317-2.862-.857-9.57904-.857-9.57904" />
        <path d="m20.708 6.23975h-16.958" />
        <path
            d="m17.4406 6.23973c-.785 0-1.461-.555-1.615-1.324l-.243-1.216c-.15-.561-.658-.949-1.237-.949h-4.233c-.57902 0-1.08702.388-1.23702.949l-.243 1.216c-.154.769-.83 1.324-1.615 1.324" />
    </g>
</svg>