<svg fill="none" height="24" viewBox="0 0 24 24" width="24" xmlns="http://www.w3.org/2000/svg">
    <g stroke="#212121" stroke-linecap="round" stroke-linejoin="round" stroke-width="1.5">
        <path
            d="m11.4925 2.78906h-3.73901c-3.075 0-5.003 2.177-5.003 5.259v8.31404c0 3.082 1.919 5.259 5.003 5.259h8.82401c3.085 0 5.004-2.177 5.004-5.259v-4.028" />
        <path clip-rule="evenodd"
            d="m8.82812 10.921 7.47298-7.47301c.931-.93 2.44-.93 3.371 0l1.217 1.217c.931.931.931 2.441 0 3.371l-7.509 7.50901c-.407.407-.959.636-1.535.636h-3.74598l.094-3.78c.014-.556.241-1.086.635-1.48z"
            fill-rule="evenodd" />
        <path d="m15.1655 4.60254 4.566 4.566" />
    </g>
</svg>