<svg fill="none" height="24" viewBox="0 0 24 24" width="24" xmlns="http://www.w3.org/2000/svg">
    <g stroke="#130f26" stroke-linecap="round" stroke-linejoin="round" stroke-width="1.5">
        <path d="m10.33 16.5928h-6.3007" />
        <path d="m13.1406 6.90042h6.3007" />
        <g clip-rule="evenodd" fill-rule="evenodd">
            <path
                d="m8.72629 6.84625c0-1.29565-1.05816-2.34625-2.36315-2.34625-1.30498 0-2.36314 1.0506-2.36314 2.34625 0 1.29566 1.05816 2.34626 2.36314 2.34626 1.30499 0 2.36315-1.0506 2.36315-2.34626z" />
            <path
                d="m20.0002 16.5538c0-1.2957-1.0573-2.3463-2.3623-2.3463-1.3058 0-2.364 1.0506-2.364 2.3463 0 1.2956 1.0582 2.3462 2.364 2.3462 1.305 0 2.3623-1.0506 2.3623-2.3462z" />
        </g>
    </g>
</svg>