<svg fill="none" height="24" viewBox="0 0 24 24" width="24" xmlns="http://www.w3.org/2000/svg">
    <g stroke="#130f26" stroke-linecap="round" stroke-linejoin="round" stroke-width="1.5">
        <path clip-rule="evenodd"
            d="m16.3025 2.74976h-8.65199c-3.012 0-4.901 2.134-4.901 5.154v8.14604c0 3.02 1.881 5.154 4.901 5.154h8.64699c3.025 0 4.905-2.134 4.905-5.154v-8.14604c.004-3.02-1.877-5.154-4.9-5.154z"
            fill-rule="evenodd" />
        <path clip-rule="evenodd"
            d="m10.7027 8.78496c0 1.02-.82596 1.84604-1.84596 1.84604-1.019 0-1.846-.82604-1.846-1.84604s.827-1.846 1.846-1.846c1.019.001 1.84496.827 1.84596 1.846z"
            fill-rule="evenodd" />
        <path
            d="m21.207 14.951c-.923-.95-2.698-2.869-4.628-2.869-1.931 0-3.044 4.233-4.901 4.233s-3.544-1.914-5.032-.687c-1.488 1.226-2.896 3.733-2.896 3.733" />
    </g>
</svg>