<svg fill="none" height="20" viewBox="0 0 20 20" width="20" xmlns="http://www.w3.org/2000/svg">
    <clipPath id="a">
        <path d="m0 0h20v20h-20z" />
    </clipPath>
    <g clip-path="url(#a)" stroke="#8f90a7" stroke-linecap="round" stroke-linejoin="round"
        stroke-width="2">
        <path
            d="m10.0001 19.091c5.0208 0 9.0909-4.0701 9.0909-9.0909 0-5.02078-4.0701-9.09092-9.0909-9.09092-5.02078 0-9.09092 4.07014-9.09092 9.09092 0 5.0208 4.07014 9.0909 9.09092 9.0909z" />
        <path d="m.90918 10h18.18182" />
        <path
            d="m10.0001.90918c2.2739 2.48941 3.5662 5.72003 3.6364 9.09092-.0702 3.3709-1.3625 6.6015-3.6364 9.0909-2.27386-2.4894-3.56611-5.72-3.63633-9.0909.07022-3.37089 1.36247-6.60151 3.63633-9.09092z" />
    </g>
</svg>