<svg fill="none" height="24" viewBox="0 0 24 24" width="24" xmlns="http://www.w3.org/2000/svg">
    <linearGradient id="a" gradientUnits="userSpaceOnUse" x1="21.5" x2="2.19" y1="22" y2="21.6961">
        <stop offset="0" stop-color="#888bf4" />
        <stop offset="1" stop-color="#5151c6" />
    </linearGradient>
    <path clip-rule="evenodd"
        d="m9.15722 20.7714v-3.0667c-.00002-.7801.6359-1.4139 1.42378-1.4191h2.8861c.7916 0 1.4334.6353 1.4334 1.4191v3.0762c-.0002.6623.5338 1.2036 1.2025 1.2191h1.9241c1.918 0 3.4729-1.5393 3.4729-3.4382v-8.72396c-.0102-.74701-.3645-1.44849-.962-1.90481l-6.5803-5.24773c-1.1528-.91373-2.7915-.91373-3.9443 0l-6.55137 5.25726c-.59977.45446-.95464 1.15711-.96203 1.9048v8.71444c0 1.8989 1.55488 3.4382 3.47291 3.4382h1.92405c.68539 0 1.24101-.5501 1.24101-1.2286"
        fill="url(#a)" fill-rule="evenodd" />
    <path
        d="m9.15722 20.7714v-3.0667c-.00002-.7801.6359-1.4139 1.42378-1.4191h2.8861c.7916 0 1.4334.6353 1.4334 1.4191v3.0762c-.0002.6623.5338 1.2036 1.2025 1.2191h1.9241c1.918 0 3.4729-1.5393 3.4729-3.4382v-8.72396c-.0102-.74701-.3645-1.44849-.962-1.90481l-6.5803-5.24773c-1.1528-.91373-2.7915-.91373-3.9443 0l-6.55137 5.25726c-.59977.45446-.95464 1.15711-.96203 1.9048v8.71444c0 1.8989 1.55488 3.4382 3.47291 3.4382h1.92405c.68539 0 1.24101-.5501 1.24101-1.2286"
        stroke="url(#a)" stroke-linecap="round" stroke-linejoin="round" stroke-width="1.5" />
</svg>