<svg fill="none" height="24" viewBox="0 0 24 24" width="24" xmlns="http://www.w3.org/2000/svg">
    <g stroke="#130f26" stroke-linecap="round" stroke-linejoin="round" stroke-width="1.5">
        <path
            d="m9.76045 14.3667c-.575-.574-.925-1.354-.925-2.229 0-1.753 1.41195-3.16602 3.16395-3.16602.867 0 1.665.351 2.23.925" />
        <path d="m15.1049 12.6987c-.232 1.29-1.248 2.308-2.537 2.542" />
        <path
            d="m6.65451 17.4722c-1.587-1.246-2.931-3.066-3.905-5.335.984-2.27897 2.337-4.10897 3.934-5.36497 1.587-1.256 3.41799-1.938 5.31599-1.938 1.909 0 3.739.692 5.336 1.957" />
        <path
            d="m19.4473 8.99072c.688.914 1.293 1.96898 1.802 3.14598-1.967 4.557-5.443 7.302-9.25 7.302-.863 0-1.714-.14-2.53201-.413" />
        <path d="m19.8868 4.24951-15.77401 15.77399" />
    </g>
</svg>