<svg fill="none" height="20" viewBox="0 0 20 20" width="20" xmlns="http://www.w3.org/2000/svg">
    <linearGradient id="a" gradientUnits="userSpaceOnUse" x1="18" x2="1.74075" y1="17" y2="16.6921">
        <stop offset="0" stop-color="#888bf4" />
        <stop offset="1" stop-color="#5151c6" />
    </linearGradient>
    <path
        d="m16.7663 4.2377c-.391-.39239-.8552-.70366-1.3661-.91602-.5109-.21237-1.0585-.32168-1.6115-.32168s-1.1006.10931-1.6115.32168c-.5109.21236-.9751.52363-1.366.91602l-.8114.81396-.81137-.81396c-.78969-.79222-1.86075-1.23729-2.97754-1.23729-1.1168 0-2.18786.44507-2.97755 1.23729-.78969.79223-1.23334 1.86671-1.23334 2.98709 0 1.12037.44365 2.19486 1.23334 2.98711l.81136.8139 5.9551 5.9742 5.9551-5.9742.8114-.8139c.3911-.39223.7014-.8579.9131-1.37044.2116-.51253.3206-1.06188.3206-1.61667s-.109-1.10415-.3206-1.61668c-.2117-.51253-.522-.97821-.9131-1.37041z"
        stroke="url(#a)" stroke-linecap="round" stroke-linejoin="round" stroke-width="1.5" />
</svg>