<svg fill="none" height="20" viewBox="0 0 20 20" width="20" xmlns="http://www.w3.org/2000/svg">
    <clipPath id="a">
        <path d="m0 0h20v20h-20z" />
    </clipPath>
    <g clip-path="url(#a)">
        <path
            d="m15.34 3.46c-.2373 0-.4693.07038-.6667.20224-.1973.13185-.3511.31927-.442.53854-.0908.21927-.1145.46055-.0682.69333s.1605.4466.3284.61442c.1678.16782.3816.28211.6144.32841s.474.02254.6933-.06828c.2193-.09083.4067-.24464.5386-.44198.1318-.19733.2022-.42934.2022-.66668 0-.31826-.1264-.62348-.3515-.84853-.225-.22504-.5302-.35147-.8485-.35147zm4.6 2.42c-.0194-.8297-.1748-1.6506-.46-2.43-.2543-.66687-.65-1.27072-1.16-1.77-.4952-.51257-1.1004-.905824-1.77-1.15-.7773-.293839-1.5992-.45279-2.43-.4700001-1.06-.05999996-1.4-.0599999-4.12-.0599999s-3.06-.00000006-4.12.0599999c-.83085.0172101-1.65266.1761611-2.43.4700001-.66832.246649-1.27307.63956-1.77 1.15-.51257.49518-.905824 1.10044-1.15 1.77-.293839.77734-.45279 1.59915-.4700001 2.43-.05999996 1.06-.0599999 1.4-.0599999 4.12s-.00000006 3.06.0599999 4.12c.0172101.8308.1761611 1.6527.4700001 2.43.244176.6696.63743 1.2748 1.15 1.77.49693.5104 1.10168.9034 1.77 1.15.77734.2938 1.59915.4528 2.43.47 1.06.06 1.4.06 4.12.06s3.06 0 4.12-.06c.8308-.0172 1.6527-.1762 2.43-.47.6696-.2442 1.2748-.6374 1.77-1.15.5122-.4974.9083-1.1018 1.16-1.77.2852-.7794.4406-1.6003.46-2.43 0-1.06.06-1.4.06-4.12s0-3.06-.06-4.12zm-1.8 8.12c-.0073.6348-.1222 1.2637-.34 1.86-.1597.4352-.4161.8284-.75 1.15-.3244.3305-.7168.5864-1.15.75-.5963.2178-1.2252.3327-1.86.34-1 .05-1.37.06-4 .06s-3 0-4-.06c-.65911.0123-1.31541-.0891-1.94-.3-.41422-.1719-.78864-.4272-1.1-.75-.33191-.3213-.58516-.7148-.74-1.15-.24414-.6048-.37956-1.2481-.4-1.9 0-1-.06-1.37-.06-4s0-3 .06-4c.00448-.64894.12295-1.29205.35-1.9.17605-.42209.44627-.79834.79-1.1.30381-.34383.67929-.6169 1.1-.8.60955-.21996 1.252-.33492 1.9-.34 1 0 1.37-.06 4-.06s3 0 4 .06c.6348.00728 1.2637.12225 1.86.34.4544.16865.8623.44285 1.19.8.3277.30718.5838.68273.75 1.1.2223.60893.3373 1.25178.34 1.9.05 1 .06 1.37.06 4s-.01 3-.06 4zm-8.14-9.13c-1.01419.00198-2.00504.30453-2.84735.86942-.8423.56489-1.49827 1.36678-1.88502 2.30433-.38674.93756-.48691 1.96875-.28784 2.96315.19907.9945.68845 1.9076 1.40629 2.6241.71784.7164 1.63193 1.204 2.62678 1.4011.99484.1972 2.02584.095 2.96264-.2936.9368-.3885 1.7374-1.0461 2.3006-1.8895.5633-.8434.8639-1.8348.8639-2.849.0013-.6749-.1308-1.34339-.3888-1.96704-.2579-.62365-.6366-1.19015-1.1143-1.66691s-1.045-.85437-1.6691-1.11112c-.6242-.25675-1.2929-.38757-1.9678-.38493zm0 8.46c-.65861 0-1.30243-.1953-1.85005-.5612-.54761-.3659-.97443-.886-1.22647-1.4945-.25204-.6084-.31798-1.27799-.1895-1.92395.12849-.64596.44565-1.23931.91135-1.70502.46571-.4657 1.05906-.78286 1.70502-.91135.64596-.12848 1.31555-.06254 1.92395.1895.6085.25204 1.1286.67886 1.4945 1.22647.3659.54762.5612 1.19144.5612 1.85005 0 .4373-.0861.8703-.2535 1.2743-.1673.4041-.4126.7711-.7218 1.0804-.3093.3092-.6763.5545-1.0804.7218-.404.1674-.837.2535-1.2743.2535z"
            fill="#8f90a7" />
    </g>
</svg>