<svg fill="none" height="22" viewBox="0 0 20 22" width="20" xmlns="http://www.w3.org/2000/svg"
    xmlns:xlink="http://www.w3.org/1999/xlink">
    <linearGradient id="a">
        <stop offset="0" stop-color="#888bf4" />
        <stop offset="1" stop-color="#5151c6" />
    </linearGradient>
    <linearGradient id="b" gradientUnits="userSpaceOnUse" x1="18.5" x2="1.22384" xlink:href="#a"
        y1="16.7955" y2="16.4875" />
    <linearGradient id="c" gradientUnits="userSpaceOnUse" x1="12.3672" x2="7.49868" xlink:href="#a"
        y1="21" y2="20.662" />
    <g stroke-linecap="round" stroke-linejoin="round" stroke-width="1.5">
        <path clip-rule="evenodd"
            d="m1.50083 12.7871v-.219c.03212-.6479.23977-1.2756.60153-1.8185.60214-.6521 1.01434-1.45129 1.19335-2.31362 0-.66648 0-1.34248.05822-2.00895.30076-3.20861 3.47335-5.42703 6.60713-5.42703h.07764c3.1338 0 6.3063 2.21842 6.6168 5.42703.0582.66647 0 1.34247.0485 2.00895.1814.86432.5932 1.66592 1.1934 2.32312.3644.5381.5724 1.1636.6015 1.809v.2095c.0217.8704-.2781 1.7192-.8441 2.3898-.7478.7841-1.7627 1.2719-2.8524 1.371-3.1954.3428-6.41937.3428-9.61478 0-1.08848-.1034-2.10186-.5905-2.85241-1.371-.55721-.6711-.85297-1.5148-.83438-2.3803z"
            fill="url(#b)" fill-rule="evenodd" stroke="url(#b)" />
        <path
            d="m7.55493 19.8518c.49928.6267 1.23246 1.0322 2.03729 1.127.80488.0947 1.61498-.1293 2.25108-.6224.1956-.1458.3716-.3154.5239-.5046"
            stroke="url(#c)" />
    </g>
</svg>