<svg fill="none" height="24" viewBox="0 0 24 24" width="24" xmlns="http://www.w3.org/2000/svg">
    <g stroke="#242424" stroke-linecap="round" stroke-linejoin="round" stroke-width="1.5">
        <path clip-rule="evenodd"
            d="m3.50083 13.7871v-.219c.03212-.6479.23977-1.2756.60153-1.8185.60214-.6521 1.01434-1.4513 1.19335-2.31362 0-.66648 0-1.34248.05822-2.00895.30076-3.20861 3.47335-5.42703 6.60717-5.42703h.0776c3.1338 0 6.3063 2.21842 6.6168 5.42703.0582.66647 0 1.34247.0485 2.00895.1814.86432.5932 1.66592 1.1934 2.32312.3644.5381.5724 1.1636.6015 1.809v.2095c.0217.8704-.2781 1.7192-.8441 2.3898-.7478.7841-1.7627 1.2719-2.8524 1.371-3.1954.3428-6.4194.3428-9.61478 0-1.08848-.1034-2.10186-.5905-2.85241-1.371-.55721-.6711-.85297-1.5148-.83438-2.3803z"
            fill-rule="evenodd" />
        <path
            d="m9.55518 20.8518c.49932.6267 1.23242 1.0322 2.03732 1.127.8048.0947 1.6149-.1293 2.251-.6224.1956-.1458.3717-.3154.5239-.5046" />
    </g>
</svg>