<svg fill="none" height="24" viewBox="0 0 24 24" width="24" xmlns="http://www.w3.org/2000/svg">
    <g stroke="#212121" stroke-linecap="round" stroke-linejoin="round" stroke-width="1.5">
        <path clip-rule="evenodd"
            d="m20.8064 7.62361-.6224-1.08009c-.5266-.91392-1.6935-1.2292-2.6087-.7048-.4356.25662-.9555.32943-1.4448.20237-.4894-.12707-.9081-.44357-1.1639-.87972-.1645-.27722-.2529-.59298-.2563-.91533.0148-.51682-.1801-1.01764-.5405-1.38837s-.8555-.57981-1.3725-.57959h-1.254c-.5066-.00001-.9922.20183-1.3495.56087-.35736.35903-.55687.84564-.55443 1.35217-.01502 1.04581-.86713 1.88569-1.91305 1.88558-.32235-.00334-.63811-.09176-.91533-.25629-.91517-.5244-2.08212-.20912-2.6087.70481l-.66819 1.09839c-.52593.91278-.21494 2.079.69565 2.60869.59191.3417.95654.9733.95654 1.6568 0 .6834-.36463 1.315-.95654 1.6567-.90944.5261-1.22077 1.6895-.69565 2.5996l.63158 1.0892c.24672.4452.66068.7737 1.15027.9128.48959.1392 1.01445.0775 1.45843-.1714.43646-.2547.95656-.3244 1.44472-.1938.48815.1306.90389.4508 1.15482.8895.16453.2772.25294.5929.25629.9153 0 1.0565.85649 1.913 1.91309 1.913h1.254c1.0529.0001 1.908-.8509 1.913-1.9038-.0024-.5082.1983-.9962.5576-1.3555s.8473-.56 1.3554-.5576c.3216.0086.6361.0967.9154.2563.9128.5259 2.079.215 2.6087-.6956l.659-1.0984c.2551-.4379.3251-.9594.1946-1.449-.1306-.4897-.451-.907-.8902-1.1597-.4393-.2527-.7597-.6701-.8902-1.1598-.1306-.4896-.0606-1.0111.1945-1.4489.1659-.2897.406-.5298.6957-.6957.9051-.52941 1.2154-1.68881.6956-2.59953z"
            fill-rule="evenodd" />
        <circle cx="12.1747" cy="11.8891" r="2.63616" />
    </g>
</svg>