<svg fill="none" height="20" viewBox="0 0 20 20" width="20" xmlns="http://www.w3.org/2000/svg">
    <path clip-rule="evenodd"
        d="m9.67612 1.66675c-4.42359 0-8.00962 3.50682-8.00962 7.83271 0 4.32594 3.58603 7.83274 8.00962 7.83274 1.89198 0 3.63068-.6415 5.00118-1.7142l2.6034 2.5393.0693.0583c.2417.1749.5844.155.8031-.0594.2405-.2359.24-.6178-.0012-.8531l-2.5727-2.5094c1.3081-1.3941 2.1065-3.253 2.1065-5.29424 0-4.32589-3.586-7.83271-8.00958-7.83271zm0 1.20644c3.74228 0 6.77588 2.96669 6.77588 6.62627 0 3.65954-3.0336 6.62624-6.77588 6.62624-3.74224 0-6.77593-2.9667-6.77593-6.62624 0-3.65958 3.03369-6.62627 6.77593-6.62627z"
        fill="#200e32" fill-rule="evenodd" />
</svg>