<svg fill="none" height="20" viewBox="0 0 20 20" width="20" xmlns="http://www.w3.org/2000/svg">
    <path clip-rule="evenodd"
        d="m1.68457 10.5574c0-1.98265 1.56161-3.60091 3.52186-3.69177l.17397-.00402h.7775c.34518 0 .625.27982.625.625 0 .31641-.23512.57791-.54019.61929l-.08481.00571h-.7775c-1.30241 0-2.36728 1.01835-2.44168 2.30209l-.00415.1437v4.0625c0 1.3018 1.01844 2.3665 2.30215 2.4409l.14368.0041h9.275c1.3023 0 2.3673-1.0182 2.4417-2.3013l.0041-.1437v-4.0708c0-1.29779-1.0146-2.35919-2.2935-2.43335l-.1431-.00414h-.7859c-.3451 0-.625-.27982-.625-.625 0-.31641.2352-.57791.5402-.61929l.0848-.00571h.7859c1.976 0 3.5892 1.55567 3.6824 3.50889l.0042.1786v4.0708c0 1.9821-1.5617 3.6002-3.5218 3.691l-.174.004h-9.275c-1.98254 0-3.60094-1.5614-3.69181-3.521l-.00402-.174zm7.88103-9.16348c.11382-.11926.27433-.19356.4522-.19356.179 0 .3404.07522.4543.19577l2.4185 2.42845c.2436.24457.2428.6403-.0018.88388-.2224.22143-.5696.24089-.8139.05884l-.07-.06066-1.3621-1.36675v8.51961c0 .3452-.2798.625-.625.625-.31641 0-.57791-.2351-.61929-.5402l-.00571-.0848v-8.52095l-1.36129 1.36802c-.2214.22238-.56857.24332-.81365.06232l-.07023-.06036c-.22239-.22139-.24333-.56857-.06233-.81365l.06036-.07023z"
        fill="#242424" fill-rule="evenodd" />
</svg>